ply
format ascii 1.0
comment Created by Open Asset Import Library - http://assimp.sf.net (v3.1.187496374)
element vertex 65
property float x
property float y
property float z
property float nx
property float ny
property float nz
element face 126
property list uint uint vertex_index
end_header
-0.647859 -0.720303 1.1775 0.749973 -0.584673 -0.309352 
-0.647859 -0.76941 1.1775 0.660718 0.70138 -0.267428
-0.838774 -0.769617 0.563811 0.735639 0.657385 -0.163339
-0.838775 -0.72051 0.563811 0.84616 -0.498503 -0.188433 
-0.685122 -0.471383 0.464803 0.66728 -0.728143 -0.156666
-0.307141 -0.472376 1.4296 0.410011 -0.840071 -0.355207 
-0.367783 -0.720474 1.66653 0.699647 -0.527201 -0.482238
-0.908171 -0.768894 0.007199 0.711852 0.70066 0.0483922 
-0.463535 -1.19973 0.325105 0.634645 0.766504 -0.0984748
-0.908172 -0.719787 0.007199 0.783192 -0.621301 0.0244261
3e-06 -1.54358 0.010141 0.0115203 0.99836 0.0560704 
-0.431013 -1.1956 -0.170782 0.599304 0.761347 0.247357 
-0.838753 -0.770983 -0.335698 0.677178 0.680395 0.280164 
-0.206369 -1.19896 1.03047 0.398279 0.86153 -0.314865 
-1e-06 -0.768894 2.11687 0.000498865 0.894257 -0.447554 
0.210687 -1.19945 1.03089 -0.403123 0.858796 -0.316167 
-0.367782 -0.769582 1.66653 0.572429 0.718438 -0.395185
-1e-06 -0.719787 2.11687 -0.000168826 -0.868856 -0.495065
0.355446 -0.72051 1.66664 -0.708946 -0.512741 -0.484244 
0.355446 -0.769618 1.66665 -0.583717 0.706834 -0.399573
0.642177 -0.769615 1.17747 -0.66591 0.695438 -0.270055
0.462084 -1.19952 0.324982 -0.636362 0.764933 -0.0995999 
0.642177 -0.720507 1.17747 -0.755676 -0.572511 -0.318095
0.30275 -0.472367 1.42905 -0.409487 -0.838883 -0.358603 
0.69069 -0.471021 0.464708 -0.688751 -0.711602 -0.138726 
0.833858 -0.720508 0.563996 -0.857484 -0.476047 -0.195193
0.833858 -0.769615 0.563996 -0.736767 0.655184 -0.167059 
0.908172 -0.768894 0.007199 -0.712331 0.700267 0.0470201 
0.908171 -0.719787 0.007199 -0.78951 -0.613117 0.0275955
0.833858 -0.721872 -0.336442 -0.738866 -0.594769 0.316745
0.629007 -0.470109 -0.249336 -0.618391 -0.743243 0.255308
0.833859 -0.77098 -0.336442 -0.676727 0.678407 0.286014 
0.428527 -1.19601 -0.170859 -0.599016 0.759838 0.252637
0.642177 -0.721876 -0.617205 -0.524475 -0.661039 0.536614
0.642177 -0.770984 -0.617205 -0.47664 0.701239 0.530168 
0.355598 -0.721184 -0.807861 -0.290144 -0.60121 0.744556
0.355598 -0.770292 -0.807861 -0.268485 0.669683 0.692416
0.180009 -1.20269 -0.410245 -0.236775 0.755312 0.611098 
0.264674 -0.473754 -0.603846 -0.243102 -0.74702 0.618758 
0 -0.721177 -0.866889 -0.000248247 -0.653069 0.757298 
0 -0.770285 -0.866886 0.0390001 0.691154 0.721655 
-0.368038 -0.720971 -0.807684 0.288236 -0.604625 0.742529 
-0.368038 -0.770078 -0.807684 0.265999 0.673424 0.689742 
-0.178616 -1.20416 -0.408978 0.235014 0.75676 0.609986 
-0.270414 -0.473338 -0.603949 0.229257 -0.751061 0.619151 
-0.647983 -0.722092 -0.616099 0.524114 -0.66012 0.538095 
-0.647983 -0.771199 -0.616099 0.478058 0.703876 0.525375 
-0.838753 -0.721876 -0.335698 0.737111 -0.600515 0.30992 
-0.329794 -0.335544 -0.318036 0.18804 -0.961502 0.200388 
-0.629807 -0.469918 -0.249296 0.580054 -0.770957 0.262989 
-0.466398 -0.335541 0.007199 0.190933 -0.981514 0.0132377 
-0.398096 -0.336213 -0.157048 0.124823 -0.990792 0.0524366 
-0.420814 -0.335545 0.29002 0.0713989 -0.997354 -0.0136732 
-0.319693 -0.335544 0.7735 0.236357 -0.967452 -0.0904033 
0.398093 -0.335544 -0.157155 -0.0716361 -0.996968 0.0303975 
0.466397 -0.335541 0.007199 -0.168426 -0.985655 0.0107932 
0.329793 -0.335543 -0.318034 -0.234669 -0.941444 0.242103 
0.412657 -0.33555 0.290913 -0.118187 -0.992829 -0.0179723 
0.169974 -0.335733 -0.386454 -0.101817 -0.962501 0.251445 
-0.167963 -0.335545 -0.386092 0.131808 -0.93631 0.325499 
-1e-06 -0.335543 -0.45158 -0.000425575 -0.844678 0.535274 
0.349994 -0.335542 0.772723 -0.159941 -0.985215 -0.0613951 
-0.190325 -0.335981 0.929732 0.105637 -0.989365 -0.0999903 
0.190132 -0.335546 0.929901 -0.132645 -0.98163 -0.13714 
-1e-06 -0.335541 1.11124 0.000331763 -0.964578 -0.263797 
3 0 1 2
3 0 2 3
3 4 5 0
3 6 1 0
3 5 6 0
3 4 0 3
3 3 2 7
3 2 1 8
3 7 2 8
3 3 7 9
3 4 3 9
3 10 11 7
3 10 7 8
3 9 7 12
3 12 7 11
3 8 1 13
3 8 13 10
3 13 14 15
3 13 15 10
3 1 16 13
3 16 14 13
3 17 14 16
3 18 19 14
3 18 14 17
3 14 19 15
3 15 20 21
3 15 21 10
3 19 20 15
3 22 20 19
3 22 19 18
3 23 22 18
3 23 18 17
3 23 24 22
3 25 20 22
3 24 25 22
3 25 26 20
3 20 26 21
3 27 10 21
3 26 27 21
3 28 27 26
3 28 26 25
3 24 28 25
3 29 27 28
3 24 30 28
3 30 29 28
3 29 31 27
3 27 32 10
3 27 31 32
3 31 29 33
3 30 33 29
3 31 33 34
3 31 34 32
3 34 10 32
3 35 36 34
3 35 34 33
3 34 37 10
3 34 36 37
3 30 38 33
3 38 35 33
3 39 36 35
3 38 39 35
3 39 40 36
3 36 40 37
3 40 10 37
3 41 42 40
3 41 40 39
3 40 42 43
3 40 43 10
3 38 44 39
3 44 41 39
3 45 42 41
3 44 45 41
3 45 46 42
3 42 46 43
3 10 43 46
3 47 12 46
3 47 46 45
3 10 46 11
3 46 12 11
3 45 44 48
3 45 48 49
3 49 47 45
3 9 12 47
3 49 9 47
3 4 9 49
3 4 49 50
3 48 51 49
3 49 51 50
3 50 52 4
3 4 53 5
3 4 52 53
3 50 51 54
3 55 50 54
3 52 50 55
3 51 48 54
3 30 54 56
3 54 48 56
3 55 54 30
3 24 57 55
3 57 52 55
3 24 55 30
3 30 56 38
3 56 48 58
3 56 58 38
3 44 59 48
3 48 59 58
3 38 58 60
3 59 60 58
3 38 60 44
3 60 59 44
3 23 61 24
3 61 57 24
3 61 52 57
3 53 52 61
3 62 53 61
3 63 62 61
3 23 63 61
3 64 63 23
3 5 64 23
3 5 23 17
3 64 62 63
3 53 62 5
3 64 5 62
3 5 17 6
3 17 16 6
3 6 16 1
