ply
format ascii 1.0
comment Created by Blender 2.78 (sub 0) - www.blender.org, source file: 'prism.blend'
element vertex 24
property float x
property float y
property float z
property float nx
property float ny
property float nz
element face 6
property list uchar uint vertex_indices
end_header
0.839670 0.814390 -0.983722 0.300019 -0.300019 -0.905526
1.047402 -0.601069 0.216716 0.300019 -0.300019 -0.905526
-1.160330 -1.185610 -0.983722 0.300019 -0.300019 -0.905526
-1.160329 0.814390 -0.983722 0.300019 -0.300019 -0.905526
0.839671 0.814389 1.016278 -0.007603 0.007603 0.999942
-0.489592 1.239041 0.667515 -0.007603 0.007603 0.999942
-1.160330 -1.185610 1.016278 -0.007603 0.007603 0.999942
1.143421 -0.721655 0.694840 -0.007603 0.007603 0.999942
0.839670 0.814390 -0.983722 0.986342 0.161893 -0.030340
0.839671 0.814389 1.016278 0.986342 0.161893 -0.030340
1.143421 -0.721655 0.694840 0.986342 0.161893 -0.030340
1.047402 -0.601069 0.216716 0.986342 0.161893 -0.030340
1.047402 -0.601069 0.216716 0.236419 -0.970015 -0.056361
1.143421 -0.721655 0.694840 0.236419 -0.970015 -0.056361
-1.160330 -1.185610 1.016278 0.236419 -0.970015 -0.056361
-1.160330 -1.185610 -0.983722 0.236419 -0.970015 -0.056361
-1.160330 -1.185610 -0.983722 -0.973972 0.160279 0.160279
-1.160330 -1.185610 1.016278 -0.973972 0.160279 0.160279
-0.489592 1.239041 0.667515 -0.973972 0.160279 0.160279
-1.160329 0.814390 -0.983722 -0.973972 0.160279 0.160279
0.839671 0.814389 1.016278 0.139670 0.980298 -0.139669
0.839670 0.814390 -0.983722 0.139670 0.980298 -0.139669
-1.160329 0.814390 -0.983722 0.139670 0.980298 -0.139669
-0.489592 1.239041 0.667515 0.139670 0.980298 -0.139669
4 0 1 2 3
4 4 5 6 7
4 8 9 10 11
4 12 13 14 15
4 16 17 18 19
4 20 21 22 23
